<svg width="111" height="28" viewBox="0 0 111 28" fill="currentColor" xmlns="http://www.w3.org/2000/svg">
<path d="M22.4772 15.0357C21.5632 14.9729 20.6447 14.9085 19.7292 14.907C17.9944 14.9024 16.2566 14.933 14.5218 14.9698C13.5822 14.9913 12.6442 15.0403 11.7076 15.1124C10.5726 15.2013 9.44064 15.3163 8.30866 15.4405C5.56816 15.7395 2.86524 16.2454 0.19991 16.9614C0.19089 16.9644 0.181871 16.9675 0.172852 16.9706C0.216447 17.1852 0.267558 17.3999 0.320173 17.613C1.02973 17.6452 1.73778 17.6789 2.44883 17.7065C3.10126 17.7326 3.75219 17.751 4.40461 17.7801C5.34267 17.8215 6.27922 17.8705 7.21727 17.9089C7.89075 17.9365 8.56572 17.9518 9.2392 17.9794C10.2885 18.0223 11.3378 18.0683 12.3856 18.1112C12.9929 18.1373 13.6002 18.1572 14.2076 18.1833C15.2569 18.2262 16.3047 18.2722 17.3525 18.3136C18.0049 18.3397 18.6558 18.3596 19.3082 18.3841C20.4462 18.4271 21.5827 18.4731 22.7207 18.516C23.1176 18.5313 23.5145 18.5436 23.9143 18.5543C24.7772 18.5773 25.6386 18.6003 26.5 18.6141C26.5376 18.6157 26.5706 18.6157 26.5977 18.6141C26.9374 17.6084 27.1644 16.5505 27.2682 15.4543C26.9284 15.4129 26.5887 15.3684 26.2459 15.3378C24.9892 15.2335 23.7339 15.1231 22.4772 15.0357Z" fill="white"/>
<path d="M26.7736 10.1495C26.73 10.1418 26.6774 10.1403 26.6143 10.1357C25.0719 10.0314 23.5295 9.91798 21.9856 9.83672C20.6612 9.76926 19.3338 9.72327 18.0079 9.70487C16.8263 9.68801 15.6417 9.71867 14.4587 9.734C14.0708 9.7386 13.6845 9.7478 13.2996 9.7708C12.1962 9.83212 11.0928 9.88118 9.99087 9.97164C8.4936 10.0974 6.99782 10.2353 5.50505 10.4086C4.35203 10.5435 3.20652 10.7351 2.06101 10.9191C1.42362 11.0218 0.792234 11.1537 0.159348 11.284C0.0962103 11.6044 0.0420921 11.931 0 12.2606C1.76336 12.3174 26.6338 13.0916 27.2983 13.1069C27.2276 12.0859 27.0502 11.0954 26.7736 10.1495Z" fill="white"/>
<path d="M23.7803 4.72822C23.5007 4.71135 23.224 4.67762 22.9444 4.66843C21.5855 4.62856 20.2265 4.58257 18.8675 4.56877C17.7957 4.5565 16.7223 4.57797 15.652 4.59943C14.6793 4.62243 13.7067 4.63623 12.7371 4.70828C11.3285 4.81407 9.92143 4.95513 8.51435 5.10384C6.58863 5.30775 2.98975 6.07126 2.26968 6.22611C2.09229 6.48828 1.92542 6.75658 1.76758 7.03101C4.80723 7.14293 24.0388 7.81139 25.8909 7.86965C25.3317 6.72438 24.6176 5.66804 23.7803 4.72822Z" fill="white"/>
<path d="M23.8346 20.8831C22.3629 20.7359 20.8882 20.5335 19.4119 20.4891C17.2036 20.4247 14.9877 20.4201 12.7809 20.5811C11.4144 20.6807 10.0524 20.8248 8.69196 20.9766C6.61141 21.2081 4.56242 21.6113 2.53598 22.1387C2.49239 22.1495 2.4518 22.1617 2.4082 22.174C2.5435 22.3672 2.6818 22.5573 2.82762 22.7428C3.12978 22.7489 3.43194 22.7627 3.7341 22.7735C4.34143 22.7965 4.94876 22.8179 5.55459 22.8455C6.47009 22.8869 7.3871 22.936 8.30261 22.9743C8.9866 23.0019 9.6706 23.0172 10.3561 23.0448C11.5813 23.097 12.805 23.1583 14.0301 23.2089C15.0238 23.2503 16.019 23.2748 17.0127 23.3147C18.3145 23.3668 19.6164 23.4297 20.9197 23.4772C21.8458 23.5124 22.7718 23.5262 23.6963 23.5584C24.3653 22.8241 24.9546 22.0176 25.4522 21.1499C25.401 21.1345 25.3544 21.1207 25.3063 21.1131C24.8178 21.0318 24.3292 20.9322 23.8346 20.8831Z" fill="white"/>
<path d="M21.2565 2.36873C21.01 2.19855 20.7574 2.03756 20.4988 1.88578C18.4739 0.686851 16.1182 0 13.6062 0C11.0927 0 8.73709 0.686851 6.71366 1.88578C6.44307 2.04523 6.17849 2.21541 5.91992 2.39172H21.2595V2.36873H21.2565Z" fill="white"/>
<path d="M6.98884 26.1894C8.91906 27.2719 11.1334 27.8943 13.4891 27.9142H13.7251C16.0807 27.8943 18.2951 27.2719 20.2253 26.1894C20.5801 25.9917 20.9258 25.777 21.2596 25.5471V25.521H5.91699C6.26275 25.7617 6.62053 25.984 6.98884 26.1894Z" fill="white"/>
<path d="M41.9358 7.12622C39.538 7.12622 37.5372 8.53826 36.7119 10.7644V7.35619H33.4873V22.5176H36.7119V15.3777C36.8772 13.8675 37.4605 12.6241 38.4452 11.6782C39.4283 10.7368 40.6309 10.2584 42.02 10.2584C42.3672 10.2584 42.6213 10.2891 42.8032 10.3152L42.8949 10.329V7.19215L42.8257 7.18141C42.5567 7.14462 42.265 7.12622 41.9358 7.12622Z" fill="white"/>
<path d="M54.6056 7.59221C53.7352 7.24418 52.8497 7.06787 51.9733 7.06787C51.0984 7.06787 50.1979 7.24418 49.3005 7.59221C47.2289 8.38638 45.7632 9.71103 44.9439 11.5278C44.0044 13.5838 44.0044 16.3465 44.9439 18.404C45.7662 20.2039 47.2319 21.5178 49.3005 22.312C50.1994 22.6447 51.0984 22.8149 51.9733 22.8149C52.8482 22.8149 53.7337 22.6462 54.6041 22.312C56.6816 21.5408 58.1564 20.2269 58.9892 18.404C59.9287 16.3481 59.9287 13.5838 58.9892 11.5294C58.1473 9.6635 56.7132 8.37565 54.6056 7.59221ZM55.1438 18.5696C54.2373 19.4358 53.1684 19.8743 51.9658 19.8743C50.7541 19.8743 49.7048 19.4481 48.7593 18.5696C47.8348 17.6865 47.3657 16.4738 47.3657 14.9667C47.3657 13.4182 47.8212 12.23 48.7578 11.3346C49.7259 10.4362 50.7752 10.0008 51.9658 10.0008C53.1489 10.0008 54.2177 10.45 55.1453 11.3346C56.1014 12.2208 56.5659 13.409 56.5659 14.9667C56.5659 16.5044 56.1014 17.6819 55.1438 18.5696Z" fill="white"/>
<path d="M68.5994 7.0679C66.8481 7.0679 65.0862 7.75015 63.64 8.99047C62.1127 10.2998 61.2002 12.5229 61.2002 14.9376C61.2002 17.3508 62.1127 19.5738 63.64 20.8847C65.0862 22.125 66.8481 22.8073 68.5994 22.8073C71.0708 22.8073 72.8913 21.3952 73.5557 20.0675H73.5963V28.0001H76.8209V7.02344L73.5302 9.75552C72.8417 8.44161 71.0377 7.0679 68.5994 7.0679ZM68.9963 19.8743C67.7651 19.8743 66.6662 19.4359 65.7326 18.5696C64.7961 17.6743 64.3406 16.4861 64.3406 14.9376C64.3406 13.3891 64.7961 12.2009 65.7326 11.3055C66.6662 10.4393 67.7651 10.0008 68.9963 10.0008C70.256 10.0008 71.3534 10.4393 72.2599 11.3055C73.216 12.1917 73.6805 13.3799 73.6805 14.9376C73.6805 16.4953 73.216 17.6819 72.2599 18.5696C71.3534 19.4343 70.256 19.8743 68.9963 19.8743Z" fill="white"/>
<path d="M86.4246 7.0679C84.6733 7.0679 82.9114 7.75015 81.4652 8.99047C79.9379 10.2998 79.0254 12.5229 79.0254 14.9376C79.0254 17.3508 79.9379 19.5738 81.4652 20.8847C82.9114 22.125 84.6733 22.8073 86.4246 22.8073C88.896 22.8073 90.7165 21.3952 91.3809 20.0675H91.4215V28.0001H94.6461V7.02344L91.3554 9.75552C90.6684 8.44161 88.8629 7.0679 86.4246 7.0679ZM86.8215 19.8743C85.5903 19.8743 84.4914 19.4359 83.5578 18.5696C82.6213 17.6743 82.1658 16.4861 82.1658 14.9376C82.1658 13.3891 82.6213 12.2009 83.5578 11.3055C84.4914 10.4393 85.5903 10.0008 86.8215 10.0008C88.0812 10.0008 89.1786 10.4393 90.0866 11.3055C91.0427 12.1917 91.5072 13.3799 91.5072 14.9376C91.5072 16.4953 91.0427 17.6835 90.0866 18.5696C89.1786 19.4343 88.0812 19.8743 86.8215 19.8743Z" fill="white"/>
<path d="M107.776 7.35603V16.3986C107.693 17.1544 107.281 17.944 106.549 18.7458C105.85 19.5124 104.934 19.9018 103.828 19.9018C101.675 19.9018 100.392 18.4223 100.392 15.9463V7.35603H97.167V16.1195C97.167 18.2951 97.7187 19.9739 98.8071 21.1084C99.8865 22.2353 101.223 22.8056 102.779 22.8056C105.861 22.8056 107.459 20.4998 107.885 19.4664L111 22.223V7.35449H107.776V7.35603Z" fill="white"/>
</svg>
