<svg width="17" height="12" viewBox="0 0 17 12" fill="none" xmlns="http://www.w3.org/2000/svg">
<path d="M15.5 0C15.2348 0 14.9804 0.105357 14.7929 0.292893C14.6054 0.48043 14.5 0.734784 14.5 1V5C14.5 5.26522 14.3947 5.51957 14.2071 5.70711C14.0196 5.89464 13.7652 6 13.5 6H3.91002L5.21002 4.71C5.39832 4.5217 5.50411 4.2663 5.50411 4C5.50411 3.7337 5.39832 3.4783 5.21002 3.29C5.02172 3.1017 4.76632 2.99591 4.50002 2.99591C4.23372 2.99591 3.97832 3.1017 3.79002 3.29L0.790018 6.29C0.698978 6.3851 0.627613 6.49725 0.580018 6.62C0.48 6.86346 0.48 7.13654 0.580018 7.38C0.627613 7.50275 0.698978 7.6149 0.790018 7.71L3.79002 10.71C3.88298 10.8037 3.99358 10.8781 4.11544 10.9289C4.2373 10.9797 4.36801 11.0058 4.50002 11.0058C4.63203 11.0058 4.76274 10.9797 4.8846 10.9289C5.00645 10.8781 5.11706 10.8037 5.21002 10.71C5.30375 10.617 5.37814 10.5064 5.42891 10.3846C5.47968 10.2627 5.50582 10.132 5.50582 10C5.50582 9.86799 5.47968 9.73728 5.42891 9.61542C5.37814 9.49356 5.30375 9.38296 5.21002 9.29L3.91002 8H13.5C14.2957 8 15.0587 7.68393 15.6213 7.12132C16.1839 6.55871 16.5 5.79565 16.5 5V1C16.5 0.734784 16.3947 0.48043 16.2071 0.292893C16.0196 0.105357 15.7652 0 15.5 0Z" fill="#A7B1BC"/>
</svg>
